<?xml version="1.0" encoding="UTF-8" standalone="no"?>
<svg
   version="1.1"
   width="100%"
   height="100%"
   viewBox="-1.1 -1.1 51.2 12.2"
   id="svg128"
   sodipodi:docname="tetris(3).svg"
   inkscape:export-filename="tetris(3).png"
   inkscape:export-xdpi="1889.7638"
   inkscape:export-ydpi="1889.7638"
   inkscape:version="1.2.2 (732a01da63, 2022-12-09)"
   xmlns:inkscape="http://www.inkscape.org/namespaces/inkscape"
   xmlns:sodipodi="http://sodipodi.sourceforge.net/DTD/sodipodi-0.dtd"
   xmlns="http://www.w3.org/2000/svg"
   xmlns:svg="http://www.w3.org/2000/svg">
  <defs
     id="defs132" />
  <sodipodi:namedview
     id="namedview130"
     pagecolor="#ffffff"
     bordercolor="#111111"
     borderopacity="1"
     inkscape:showpageshadow="0"
     inkscape:pageopacity="0"
     inkscape:pagecheckerboard="1"
     inkscape:deskcolor="#d1d1d1"
     showgrid="false"
     inkscape:zoom="23.632812"
     inkscape:cx="25.6"
     inkscape:cy="6.0932231"
     inkscape:window-width="1920"
     inkscape:window-height="1017"
     inkscape:window-x="-8"
     inkscape:window-y="32"
     inkscape:window-maximized="1"
     inkscape:current-layer="svg128" />
  <g
     transform="matrix(1,0,0,1,0,0)"
     id="g18">
    <rect
       width="7.8"
       height="0.5"
       x="-0.9"
       y="8"
       class="base"
       style="fill: none; stroke: none; stroke-width: 1px; stroke-linecap: butt;"
       id="rect2" />
    <polygon
       points="0,0 2,0 2,2 0,2"
       class="O"
       transform="matrix(1,0,0,1,1,6)"
       style="fill: rgb(226, 226, 54); stroke: rgb(232, 230, 227); stroke-width: 0.2px; stroke-linecap: butt;"
       id="polygon4" />
    <polygon
       points="0,1 2,1 2,0 3,0 3,2 0,2"
       class="L"
       transform="matrix(6.123233995736766e-17,1,-1,6.123233995736766e-17,3,3)"
       style="fill: rgb(226, 169, 54); stroke: rgb(232, 230, 227); stroke-width: 0.2px; stroke-linecap: butt;"
       id="polygon6" />
    <polygon
       points="0,0 2,0 2,1 3,1 3,2 1,2 1,1 0,1"
       class="Z"
       transform="matrix(6.123233995736766e-17,1,-1,6.123233995736766e-17,2,1)"
       style="fill: rgb(226, 54, 54); stroke: rgb(232, 230, 227); stroke-width: 0.2px; stroke-linecap: butt;"
       id="polygon8" />
    <polygon
       points="0,0 1,0 1,1 3,1 3,2 0,2"
       class="J"
       transform="matrix(1,0,0,1,2,3)"
       style="fill: rgb(77, 132, 229); stroke: rgb(232, 230, 227); stroke-width: 0.2px; stroke-linecap: butt;"
       id="polygon10" />
    <polygon
       points="1,0 2,0 2,1 3,1 3,2 0,2 0,1 1,1"
       class="T"
       transform="matrix(1,0,0,1,3,2)"
       style="fill: rgb(169, 54, 226); stroke: rgb(232, 230, 227); stroke-width: 0.2px; stroke-linecap: butt;"
       id="polygon12" />
    <polygon
       points="1,0 3,0 3,1 2,1 2,2 0,2 0,1 1,1"
       class="S"
       transform="matrix(6.123233995736766e-17,1,-1,6.123233995736766e-17,6,0)"
       style="fill: rgb(54, 226, 54); stroke: rgb(232, 230, 227); stroke-width: 0.2px; stroke-linecap: butt;"
       id="polygon14" />
    <polygon
       points="4,1 4,0 0,0 0,1"
       class="I"
       transform="matrix(1,0,0,1,0,0)"
       style="fill: rgb(54, 226, 226); stroke: rgb(232, 230, 227); stroke-width: 0.2px; stroke-linecap: butt;"
       id="polygon16" />
  </g>
  <g
     transform="matrix(1,0,0,1,7,0)"
     id="g36">
    <rect
       width="6.8"
       height="0.5"
       x="-0.9"
       y="8"
       class="base"
       style="fill: none; stroke: none; stroke-width: 1px; stroke-linecap: butt;"
       id="rect20" />
    <polygon
       points="4,1 4,0 0,0 0,1"
       class="I"
       transform="matrix(1,0,0,1,1,7)"
       style="fill: rgb(54, 226, 226); stroke: rgb(232, 230, 227); stroke-width: 0.2px; stroke-linecap: butt;"
       id="polygon22" />
    <polygon
       points="1,0 2,0 2,1 3,1 3,2 0,2 0,1 1,1"
       class="T"
       transform="matrix(6.123233995736766e-17,1,-1,6.123233995736766e-17,2,5)"
       style="fill: rgb(169, 54, 226); stroke: rgb(232, 230, 227); stroke-width: 0.2px; stroke-linecap: butt;"
       id="polygon24" />
    <polygon
       points="1,0 3,0 3,1 2,1 2,2 0,2 0,1 1,1"
       class="S"
       transform="matrix(6.123233995736766e-17,1,-1,6.123233995736766e-17,3,4)"
       style="fill: rgb(54, 226, 54); stroke: rgb(232, 230, 227); stroke-width: 0.2px; stroke-linecap: butt;"
       id="polygon26" />
    <polygon
       points="0,1 2,1 2,0 3,0 3,2 0,2"
       class="L"
       transform="matrix(-1,1.2246467991473532e-16,-1.2246467991473532e-16,-1,5,5)"
       style="fill: rgb(226, 169, 54); stroke: rgb(232, 230, 227); stroke-width: 0.2px; stroke-linecap: butt;"
       id="polygon28" />
    <polygon
       points="0,0 2,0 2,1 3,1 3,2 1,2 1,1 0,1"
       class="Z"
       transform="matrix(6.123233995736766e-17,1,-1,6.123233995736766e-17,3,1)"
       style="fill: rgb(226, 54, 54); stroke: rgb(232, 230, 227); stroke-width: 0.2px; stroke-linecap: butt;"
       id="polygon30" />
    <polygon
       points="0,0 2,0 2,2 0,2"
       class="O"
       transform="matrix(1,0,0,1,0,0)"
       style="fill: rgb(226, 226, 54); stroke: rgb(232, 230, 227); stroke-width: 0.2px; stroke-linecap: butt;"
       id="polygon32" />
    <polygon
       points="0,0 1,0 1,1 3,1 3,2 0,2"
       class="J"
       transform="matrix(-1,1.2246467991473532e-16,-1.2246467991473532e-16,-1,5,2)"
       style="fill: rgb(77, 132, 229); stroke: rgb(232, 230, 227); stroke-width: 0.2px; stroke-linecap: butt;"
       id="polygon34" />
  </g>
  <g
     transform="matrix(1,0,0,1,13,0)"
     id="g54">
    <rect
       width="7.8"
       height="0.5"
       x="-0.9"
       y="8"
       class="base"
       style="fill: none; stroke: none; stroke-width: 1px; stroke-linecap: butt;"
       id="rect38" />
    <polygon
       points="0,1 2,1 2,0 3,0 3,2 0,2"
       class="L"
       transform="matrix(-1.8369701987210297e-16,-1,1,-1.8369701987210297e-16,4,8)"
       style="fill: rgb(226, 169, 54); stroke: rgb(232, 230, 227); stroke-width: 0.2px; stroke-linecap: butt;"
       id="polygon40" />
    <polygon
       points="0,0 2,0 2,1 3,1 3,2 1,2 1,1 0,1"
       class="Z"
       transform="matrix(6.123233995736766e-17,1,-1,6.123233995736766e-17,5,3)"
       style="fill: rgb(226, 54, 54); stroke: rgb(232, 230, 227); stroke-width: 0.2px; stroke-linecap: butt;"
       id="polygon42" />
    <polygon
       points="0,0 1,0 1,1 3,1 3,2 0,2"
       class="J"
       transform="matrix(-1.8369701987210297e-16,-1,1,-1.8369701987210297e-16,2.220446049250313e-16,8)"
       style="fill: rgb(77, 132, 229); stroke: rgb(232, 230, 227); stroke-width: 0.2px; stroke-linecap: butt;"
       id="polygon44" />
    <polygon
       points="1,0 3,0 3,1 2,1 2,2 0,2 0,1 1,1"
       class="S"
       transform="matrix(6.123233995736766e-17,1,-1,6.123233995736766e-17,2,2)"
       style="fill: rgb(54, 226, 54); stroke: rgb(232, 230, 227); stroke-width: 0.2px; stroke-linecap: butt;"
       id="polygon46" />
    <polygon
       points="1,0 2,0 2,1 3,1 3,2 0,2 0,1 1,1"
       class="T"
       transform="matrix(-1.8369701987210297e-16,-1,1,-1.8369701987210297e-16,2.220446049250313e-16,3)"
       style="fill: rgb(169, 54, 226); stroke: rgb(232, 230, 227); stroke-width: 0.2px; stroke-linecap: butt;"
       id="polygon48" />
    <polygon
       points="0,0 2,0 2,2 0,2"
       class="O"
       transform="matrix(1,0,0,1,2,2)"
       style="fill: rgb(226, 226, 54); stroke: rgb(232, 230, 227); stroke-width: 0.2px; stroke-linecap: butt;"
       id="polygon50" />
    <polygon
       points="4,1 4,0 0,0 0,1"
       class="I"
       transform="matrix(6.123233995736766e-17,1,-1,6.123233995736766e-17,6,1)"
       style="fill: rgb(54, 226, 226); stroke: rgb(232, 230, 227); stroke-width: 0.2px; stroke-linecap: butt;"
       id="polygon52" />
  </g>
  <g
     transform="matrix(1,0,0,1,20,0)"
     id="g72">
    <rect
       width="11.8"
       height="0.5"
       x="-0.9"
       y="8"
       class="base"
       style="fill: none; stroke: none; stroke-width: 1px; stroke-linecap: butt;"
       id="rect56" />
    <polygon
       points="0,0 2,0 2,2 0,2"
       class="O"
       transform="matrix(1,0,0,1,4,6)"
       style="fill: rgb(226, 226, 54); stroke: rgb(232, 230, 227); stroke-width: 0.2px; stroke-linecap: butt;"
       id="polygon58" />
    <polygon
       points="0,1 2,1 2,0 3,0 3,2 0,2"
       class="L"
       transform="matrix(6.123233995736766e-17,1,-1,6.123233995736766e-17,6,3)"
       style="fill: rgb(226, 169, 54); stroke: rgb(232, 230, 227); stroke-width: 0.2px; stroke-linecap: butt;"
       id="polygon60" />
    <polygon
       points="4,1 4,0 0,0 0,1"
       class="I"
       transform="matrix(6.123233995736766e-17,1,-1,6.123233995736766e-17,6,1)"
       style="fill: rgb(54, 226, 226); stroke: rgb(232, 230, 227); stroke-width: 0.2px; stroke-linecap: butt;"
       id="polygon62" />
    <polygon
       points="0,0 2,0 2,1 3,1 3,2 1,2 1,1 0,1"
       class="Z"
       transform="matrix(1,0,0,1,5,0)"
       style="fill: rgb(226, 54, 54); stroke: rgb(232, 230, 227); stroke-width: 0.2px; stroke-linecap: butt;"
       id="polygon64" />
    <polygon
       points="1,0 2,0 2,1 3,1 3,2 0,2 0,1 1,1"
       class="T"
       transform="matrix(-1,1.2246467991473532e-16,-1.2246467991473532e-16,-1,10,2)"
       style="fill: rgb(169, 54, 226); stroke: rgb(232, 230, 227); stroke-width: 0.2px; stroke-linecap: butt;"
       id="polygon66" />
    <polygon
       points="0,0 1,0 1,1 3,1 3,2 0,2"
       class="J"
       transform="matrix(-1,1.2246467991473532e-16,-1.2246467991473532e-16,-1,5,3)"
       style="fill: rgb(77, 132, 229); stroke: rgb(232, 230, 227); stroke-width: 0.2px; stroke-linecap: butt;"
       id="polygon68" />
    <polygon
       points="1,0 3,0 3,1 2,1 2,2 0,2 0,1 1,1"
       class="S"
       transform="matrix(1,0,0,1,0,0)"
       style="fill: rgb(54, 226, 54); stroke: rgb(232, 230, 227); stroke-width: 0.2px; stroke-linecap: butt;"
       id="polygon70" />
  </g>
  <g
     transform="matrix(1,0,0,1,31,0)"
     id="g90">
    <rect
       width="6.8"
       height="0.5"
       x="-0.9"
       y="8"
       class="base"
       style="fill: none; stroke: none; stroke-width: 1px; stroke-linecap: butt;"
       id="rect74" />
    <polygon
       points="4,1 4,0 0,0 0,1"
       class="I"
       transform="matrix(6.123233995736766e-17,1,-1,6.123233995736766e-17,1,4)"
       style="fill: rgb(54, 226, 226); stroke: rgb(232, 230, 227); stroke-width: 0.2px; stroke-linecap: butt;"
       id="polygon76" />
    <polygon
       points="1,0 2,0 2,1 3,1 3,2 0,2 0,1 1,1"
       class="T"
       transform="matrix(-1.8369701987210297e-16,-1,1,-1.8369701987210297e-16,2.220446049250313e-16,5)"
       style="fill: rgb(169, 54, 226); stroke: rgb(232, 230, 227); stroke-width: 0.2px; stroke-linecap: butt;"
       id="polygon78" />
    <polygon
       points="0,0 2,0 2,1 3,1 3,2 1,2 1,1 0,1"
       class="Z"
       transform="matrix(6.123233995736766e-17,1,-1,6.123233995736766e-17,2,0)"
       style="fill: rgb(226, 54, 54); stroke: rgb(232, 230, 227); stroke-width: 0.2px; stroke-linecap: butt;"
       id="polygon80" />
    <polygon
       points="1,0 3,0 3,1 2,1 2,2 0,2 0,1 1,1"
       class="S"
       transform="matrix(6.123233995736766e-17,1,-1,6.123233995736766e-17,5,5)"
       style="fill: rgb(54, 226, 54); stroke: rgb(232, 230, 227); stroke-width: 0.2px; stroke-linecap: butt;"
       id="polygon82" />
    <polygon
       points="0,1 2,1 2,0 3,0 3,2 0,2"
       class="L"
       transform="matrix(-1,1.2246467991473532e-16,-1.2246467991473532e-16,-1,5,6)"
       style="fill: rgb(226, 169, 54); stroke: rgb(232, 230, 227); stroke-width: 0.2px; stroke-linecap: butt;"
       id="polygon84" />
    <polygon
       points="0,0 2,0 2,2 0,2"
       class="O"
       transform="matrix(1,0,0,1,3,2)"
       style="fill: rgb(226, 226, 54); stroke: rgb(232, 230, 227); stroke-width: 0.2px; stroke-linecap: butt;"
       id="polygon86" />
    <polygon
       points="0,0 1,0 1,1 3,1 3,2 0,2"
       class="J"
       transform="matrix(-1,1.2246467991473532e-16,-1.2246467991473532e-16,-1,5,2)"
       style="fill: rgb(77, 132, 229); stroke: rgb(232, 230, 227); stroke-width: 0.2px; stroke-linecap: butt;"
       id="polygon88" />
  </g>
  <g
     transform="matrix(1,0,0,1,37,0)"
     id="g108">
    <rect
       width="7.8"
       height="0.5"
       x="-0.9"
       y="8"
       class="base"
       style="fill: none; stroke: none; stroke-width: 1px; stroke-linecap: butt;"
       id="rect92" />
    <polygon
       points="1,0 2,0 2,1 3,1 3,2 0,2 0,1 1,1"
       class="T"
       transform="matrix(1,0,0,1,0,6)"
       style="fill: rgb(169, 54, 226); stroke: rgb(232, 230, 227); stroke-width: 0.2px; stroke-linecap: butt;"
       id="polygon94" />
    <polygon
       points="0,0 2,0 2,1 3,1 3,2 1,2 1,1 0,1"
       class="Z"
       transform="matrix(1,0,0,1,2,6)"
       style="fill: rgb(226, 54, 54); stroke: rgb(232, 230, 227); stroke-width: 0.2px; stroke-linecap: butt;"
       id="polygon96" />
    <polygon
       points="0,1 2,1 2,0 3,0 3,2 0,2"
       class="L"
       transform="matrix(6.123233995736766e-17,1,-1,6.123233995736766e-17,4,3)"
       style="fill: rgb(226, 169, 54); stroke: rgb(232, 230, 227); stroke-width: 0.2px; stroke-linecap: butt;"
       id="polygon98" />
    <polygon
       points="0,0 1,0 1,1 3,1 3,2 0,2"
       class="J"
       transform="matrix(6.123233995736766e-17,1,-1,6.123233995736766e-17,5,2)"
       style="fill: rgb(77, 132, 229); stroke: rgb(232, 230, 227); stroke-width: 0.2px; stroke-linecap: butt;"
       id="polygon100" />
    <polygon
       points="1,0 3,0 3,1 2,1 2,2 0,2 0,1 1,1"
       class="S"
       transform="matrix(1,0,0,1,3,0)"
       style="fill: rgb(54, 226, 54); stroke: rgb(232, 230, 227); stroke-width: 0.2px; stroke-linecap: butt;"
       id="polygon102" />
    <polygon
       points="0,0 2,0 2,2 0,2"
       class="O"
       transform="matrix(1,0,0,1,1,1)"
       style="fill: rgb(226, 226, 54); stroke: rgb(232, 230, 227); stroke-width: 0.2px; stroke-linecap: butt;"
       id="polygon104" />
    <polygon
       points="4,1 4,0 0,0 0,1"
       class="I"
       transform="matrix(1,0,0,1,0,0)"
       style="fill: rgb(54, 226, 226); stroke: rgb(232, 230, 227); stroke-width: 0.2px; stroke-linecap: butt;"
       id="polygon106" />
  </g>
  <g
     transform="matrix(1,0,0,1,44,0)"
     id="g126">
    <rect
       width="6.8"
       height="0.5"
       x="-0.9"
       y="8"
       class="base"
       style="fill: none; stroke: none; stroke-width: 1px; stroke-linecap: butt;"
       id="rect110" />
    <polygon
       points="0,1 2,1 2,0 3,0 3,2 0,2"
       class="L"
       transform="matrix(1,0,0,1,2,6)"
       style="fill: rgb(226, 169, 54); stroke: rgb(232, 230, 227); stroke-width: 0.2px; stroke-linecap: butt;"
       id="polygon112" />
    <polygon
       points="0,0 2,0 2,1 3,1 3,2 1,2 1,1 0,1"
       class="Z"
       transform="matrix(6.123233995736766e-17,1,-1,6.123233995736766e-17,5,4)"
       style="fill: rgb(226, 54, 54); stroke: rgb(232, 230, 227); stroke-width: 0.2px; stroke-linecap: butt;"
       id="polygon114" />
    <polygon
       points="1,0 2,0 2,1 3,1 3,2 0,2 0,1 1,1"
       class="T"
       transform="matrix(-1,1.2246467991473532e-16,-1.2246467991473532e-16,-1,3,8)"
       style="fill: rgb(169, 54, 226); stroke: rgb(232, 230, 227); stroke-width: 0.2px; stroke-linecap: butt;"
       id="polygon116" />
    <polygon
       points="1,0 3,0 3,1 2,1 2,2 0,2 0,1 1,1"
       class="S"
       transform="matrix(1,0,0,1,2,3)"
       style="fill: rgb(54, 226, 54); stroke: rgb(232, 230, 227); stroke-width: 0.2px; stroke-linecap: butt;"
       id="polygon118" />
    <polygon
       points="0,0 1,0 1,1 3,1 3,2 0,2"
       class="J"
       transform="matrix(-1.8369701987210297e-16,-1,1,-1.8369701987210297e-16,1.0000000000000002,4)"
       style="fill: rgb(77, 132, 229); stroke: rgb(232, 230, 227); stroke-width: 0.2px; stroke-linecap: butt;"
       id="polygon120" />
    <polygon
       points="0,0 2,0 2,2 0,2"
       class="O"
       transform="matrix(1,0,0,1,0,1)"
       style="fill: rgb(226, 226, 54); stroke: rgb(232, 230, 227); stroke-width: 0.2px; stroke-linecap: butt;"
       id="polygon122" />
    <polygon
       points="4,1 4,0 0,0 0,1"
       class="I"
       transform="matrix(1,0,0,1,1,0)"
       style="fill: rgb(54, 226, 226); stroke: rgb(232, 230, 227); stroke-width: 0.2px; stroke-linecap: butt;"
       id="polygon124" />
  </g>
</svg>
